<svg width="80" height="80" viewBox="0 0 80 80" fill="none" xmlns="http://www.w3.org/2000/svg">
<path opacity="0.8" d="M40 66.6666C54.7276 66.6666 66.6667 54.7275 66.6667 39.9999C66.6667 25.2723 54.7276 13.3333 40 13.3333C25.2724 13.3333 13.3334 25.2723 13.3334 39.9999C13.3334 54.7275 25.2724 66.6666 40 66.6666Z" stroke="white" stroke-width="3" stroke-linecap="round" stroke-linejoin="round"/>
<path d="M40 50C45.5228 50 50 45.5228 50 40C50 34.4772 45.5228 30 40 30C34.4772 30 30 34.4772 30 40C30 45.5228 34.4772 50 40 50Z" fill="#0000FB"/>
<path opacity="0.8" d="M40 13.3333V25" stroke="white" stroke-width="3" stroke-linecap="round" stroke-linejoin="round"/>
<path opacity="0.8" d="M13.3334 40H25.0001" stroke="white" stroke-width="3" stroke-linecap="round" stroke-linejoin="round"/>
<path opacity="0.8" d="M40 66.6667V55" stroke="white" stroke-width="3" stroke-linecap="round" stroke-linejoin="round"/>
<path opacity="0.8" d="M66.6667 40H55" stroke="white" stroke-width="3" stroke-linecap="round" stroke-linejoin="round"/>
<path opacity="0.8" d="M58.3334 21.6667L50 30" stroke="white" stroke-width="3" stroke-linecap="round" stroke-linejoin="round"/>
<path opacity="0.8" d="M21.6667 21.6667L30 30" stroke="white" stroke-width="3" stroke-linecap="round" stroke-linejoin="round"/>
<path opacity="0.8" d="M58.3334 58.3333L50 50" stroke="white" stroke-width="3" stroke-linecap="round" stroke-linejoin="round"/>
<path opacity="0.8" d="M21.6667 58.3333L30 50" stroke="white" stroke-width="3" stroke-linecap="round" stroke-linejoin="round"/>
</svg> 